Patient4_TMGait_0pt4_03_right_39_EMG.mot
version=1
nRows=23
nColumns=33
inDegrees=no
endheader
time	1LAddLong	2LGlutMax	3LGlutMed	4LIliopsoas	5LSemiMemb	6LBicFemLong	7LRecFem	8LVastMed	9LVastLat	10LGasMed	11LTibAnt	12lTibPost	13LPeroneusLong	14LSol	15LExtDigLong	16LFlexDigLong	17RAddLong	18RGlutMax	19RGlutMed	20RIliopsoas	21RSemiMemb	22RBicFemLong	23RRecFem	24RVastMed	25RVastLat	26RGasMed	27RTibAnt	28RTibPost	29RPeroneusLong	30RSol	31RExtDigLong	32RFlexDigLong
52.445	0.0177	-0.054474	-0.089569	0.003052	0.015411	-0.027924	-0.22446	-0.011749	0.061035	-0.01236	-0.058746	0.001221	0.37811	-0.040588	0.11002	0.00412	-0.11276	-0.12497	-0.13428	-0.28717	-0.066071	0.12268	0.050049	-0.045929	0.042725	0.019989	-0.17883	-0.000153	0.50949	-0.075989	0.001984	-0.023651
52.446	0.012054	-0.075531	0.064697	-0.000916	0.015869	-0.027161	-0.067749	-0.006561	0.15182	0.002289	-0.057068	0.003357	-0.1178	0.060577	0.52963	-0.003967	-0.094299	-0.13931	-0.0383	-0.20065	-0.083923	0.14618	0.038147	-0.073547	0.029297	0.010834	0.081635	-0.00061	-0.16769	0.02655	0.000153	-0.011292
52.447	-0.002899	-0.061035	0.21744	-0.005951	0.006714	-0.003967	0.11078	0.000458	0.063629	-0.001221	-0.06485	0.00351	-0.008545	0.022278	0.095673	-0.00946	-0.063934	-0.12772	0.002289	-0.046997	-0.10742	0.17258	0.0354	-0.089111	0.032654	0.011902	0.35049	0.000153	-0.56839	0.081329	-0.000763	-0.011902
52.448	-0.000153	-0.085144	0.21103	-0.008545	0.007324	0.001373	0.14465	0.027161	0.045471	-0.057831	-0.12085	0.001678	0.85586	0.055847	0.24368	0.00351	-0.059967	-0.099182	0.030365	0.12482	-0.071869	0.21271	0.02182	-0.097351	0.02655	0.014648	0.071411	-0.002594	-0.37872	0.068665	0.00885	0.00351
52.449	0.003357	-0.093231	0.042877	-0.000153	0.004425	-0.021057	0.11444	0.020752	0.050201	-0.049591	-0.009155	-0.005646	0.084229	0.015106	-0.20142	-0.005035	-0.076752	-0.19821	-0.10742	0.20752	0.10376	0.27786	-0.035706	-0.064392	0.023346	0.019531	-0.8786	0	0.014648	-0.037842	-0.003662	0.005188
52.45	0.008087	-0.099487	0.045471	-0.020447	0.024719	-0.033569	0.06134	0.01358	0.062256	-0.059814	0.070648	-0.009003	-0.551	-0.00412	-0.15228	0.006409	-0.062866	-0.15793	-0.12711	-0.033417	0.14954	0.34241	0.013123	-0.030975	0.039063	0.019836	-0.43579	-0.001984	0.15106	-0.096741	-0.007172	0.012054
52.451	0.012054	-0.060577	0.072021	-0.011902	0.009613	-0.030212	-0.10681	0.018921	0.14694	-0.025482	0.11658	-0.00946	-0.49271	-0.12451	-0.42374	0.015411	-0.055847	-0.10971	-0.11429	0.074158	0.034027	0.30594	0.044708	-0.044861	0.01297	0.026855	-0.11398	-0.001068	0.15182	-0.085449	-0.001221	0.013885
52.452	0.01358	-0.04837	0.052032	0.020752	0.020142	-0.017395	-0.19745	0.010529	0.2475	-0.010986	0.112	-0.010529	-0.24338	-0.033875	-0.57922	0.005646	-0.005035	-0.16495	-0.20554	0.34561	0.024414	0.25055	0.007019	-0.058746	0.011749	0.018768	0.20706	0.000305	0.17166	-0.010834	-0.000458	0.008698
52.453	0.010986	-0.074005	0.070953	0.021362	-0.000305	0.002441	-0.083771	0.003357	0.18906	-0.040283	0.11612	-0.021667	0.097351	0.11353	-0.34409	0.012054	0.004272	-0.18601	-0.37399	0.31647	0.1471	0.22812	-0.016785	-0.10788	0.008087	0.014343	0.34775	0.000305	0.071716	0.028381	-0.00473	0.005341
52.454	-0.012207	-0.082092	0.014801	0.027924	0.007935	0.016022	0.023346	-0.000153	0.055695	-0.04425	0.077972	-0.014343	0.10086	0.082397	0.85083	0.02182	0.010071	-0.15839	-0.20081	0.1622	0.17899	0.15732	-0.004425	-0.10254	0.00351	0.005188	0.43427	-0.007019	-0.089569	0.010834	-0.000763	0.006561
52.455	-0.00061	-0.10239	-0.055695	0.018616	0.012054	0.011444	0.072479	-0.002441	0.046387	-0.004883	0.19363	-0.009613	-0.093994	-0.21942	0.16495	0.012512	0.002136	-0.16647	-0.061798	0.024719	0.13229	0.14084	0.075073	-0.12894	0.001831	0.000763	0.40405	-0.004883	-0.035095	-0.05722	-0.006561	0.005035
52.456	-0.007782	-0.066528	-0.008698	0.012207	0.001221	0.001831	0.068359	0.005035	0.062256	-0.006714	0.15366	-0.017395	-0.011902	-0.2124	-0.21805	0.012207	-0.004578	-0.12589	0.57083	0.005341	0.06958	0.11292	0.11398	-0.11185	0.010986	0.002747	0.31784	-0.00061	0.082245	-0.10391	0.003052	0.010376
52.457	0.00061	-0.12177	-0.096588	0.023041	0.004272	-0.003052	0.040436	-0.000305	0.052338	-0.007477	0.048218	-0.010223	0.00946	-0.012512	-0.10544	0.009308	0.002747	-0.14572	0.5043	0.058746	0.063477	0.11643	0.004272	-0.057831	0.038757	0.006409	0.10086	-0.003357	0.3038	-0.14053	0.000153	0.011902
52.458	-0.00412	-0.097198	-0.068207	0.019073	0.014648	-0.016632	-0.003815	-0.019684	0.071716	-0.011444	0.017395	-0.014343	0.063782	-0.062714	-0.1712	-0.000916	0.008087	-0.14954	-0.057831	0.1059	0.076752	0.12207	0.030823	-0.053864	0.031281	0.006409	-0.49103	-0.002441	0.28137	-0.14587	0.000305	0.01297
52.459	0.005798	-0.096588	-0.02121	0.006409	0.018005	-0.022278	-0.050964	-0.015259	0.074463	-0.001373	0.029602	-0.008392	0.091248	-0.13382	0.013275	0.000305	0.016785	-0.13092	-0.61233	0.052185	0.063782	0.12894	0.075531	-0.046844	0.02121	0.007782	-0.4454	0.000763	-0.049286	-0.18875	0.003815	0.015717
52.46	0.001831	-0.093994	-0.046234	0.001221	0.024109	-0.020447	-0.044861	-0.009918	0.010529	-0.054779	0.11948	-0.010376	0.29755	-0.050201	0.047302	0.005341	-0.001526	-0.13687	-0.59769	-0.03479	0.054321	0.13214	0.10895	-0.0354	0.02121	0.007477	-0.28534	-0.003967	0.007172	-0.14221	0.003662	0.016479
52.461	0.005646	-0.11169	-0.014038	0.007324	0.019379	-0.012512	0.076752	-0.009003	-0.12085	-0.069122	0.033112	-0.007477	0.11047	-0.13565	-0.03067	0.007019	-0.014191	-0.10574	0.018921	-0.13245	0.053864	0.15442	0.084991	-0.047302	0.011139	0.001678	-0.21561	-0.000153	0.14618	-0.022583	-0.001068	0.019226
52.462	0.000458	-0.089569	0.032349	0.010071	0.019531	-0.003204	0.15243	0.005035	-0.019989	-0.053711	-0.12192	-0.011749	-0.007172	-0.097656	0.075989	0.005493	-0.010681	-0.075989	0.56091	-0.20844	0.051422	0.18997	0.0383	-0.06546	0.027924	0.000763	-0.22446	-0.001984	0.21362	0.088348	-0.000916	0.014496
52.463	0.00061	-0.051117	0.00412	0.025177	0.014954	-0.005341	0.22766	-0.005798	0.070038	-0.017242	-0.1001	-0.011597	0.020905	0.028229	0.16449	-0.002747	-0.013123	-0.09613	0.55573	-0.17136	-0.094757	0.24918	-0.079803	-0.069733	0.020752	0.00061	0.18112	-0.001068	0.18616	0.046997	-0.001373	0.020447
52.464	0.001831	-0.11673	-0.058136	0.024872	0.004425	-0.001526	0.26077	-0.00473	0.035095	-0.009766	-0.094757	-0.01236	0.076904	0.054779	0.37354	-0.003815	-0.008392	-0.19257	-0.16693	-0.08316	0.031281	0.20325	-0.037231	-0.03891	0.027161	-0.00473	0.45609	-0.001526	-0.30182	-0.065613	0.000916	0.022736
52.465	-0.003662	-0.12405	-0.056915	0.013428	0.019684	-0.007324	0.25436	0.003357	0.03891	-0.002747	-0.045624	-0.009308	0.10513	0.16281	-0.073547	-0.016022	0.038147	-0.22201	-0.6868	-0.041504	0.066071	0.12985	0.000763	-0.095673	0.010834	-0.010376	0.51498	-0.001373	-0.66086	-0.038757	0.001831	0.028687
52.466	0.002289	-0.090637	0.061798	-0.031586	0.00824	-0.00946	0.14313	0.008392	0.018616	0.006256	0.052338	-0.007324	0.19806	0.21622	0.4274	0.00351	0.072021	-0.16159	-0.27954	0.033569	0.03952	0.11185	0.009308	-0.098724	0.011902	-0.010376	0.14847	-0.002441	-0.48325	0.00473	0.003204	0.02182
52.467	0.00412	-0.077972	0.055389	-0.000458	0.018463	-0.00824	0.078888	0.009766	0.011749	-0.009766	0.1831	-0.009308	-0.028076	0.16129	0.021057	-0.002594	0.072021	-0.17975	-0.51392	0.03006	0.036926	0.16663	-0.005035	-0.12497	0.017395	-0.005188	-0.63538	0	-0.19272	-0.058594	0.002136	0.023804
